<svg xmlns="http://www.w3.org/2000/svg"  viewBox="0 0 32 32" width="32px" height="32px"><path d="M16 12A1 1 0 1016 14 1 1 0 1016 12zM16 21A1 1 0 1016 23 1 1 0 1016 21zM13 21A1 1 0 1013 23 1 1 0 1013 21zM16 18A1 1 0 1016 20 1 1 0 1016 18zM13 18A1 1 0 1013 20 1 1 0 1013 18zM13 12A1 1 0 1013 14 1 1 0 1013 12zM10 21A1 1 0 1010 23 1 1 0 1010 21zM19 24A1 1 0 1019 26 1 1 0 1019 24zM16 24A1 1 0 1016 26 1 1 0 1016 24zM13 24A1 1 0 1013 26 1 1 0 1013 24zM10 24A1 1 0 1010 26 1 1 0 1010 24zM19 27A1 1 0 1019 29 1 1 0 1019 27zM22 24A1 1 0 1022 26 1 1 0 1022 24zM22 27A1 1 0 1022 29 1 1 0 1022 27zM25 24A1 1 0 1025 26 1 1 0 1025 24zM16 27A1 1 0 1016 29 1 1 0 1016 27zM22 21A1 1 0 1022 23 1 1 0 1022 21zM13 27A1 1 0 1013 29 1 1 0 1013 27zM10 18A1 1 0 1010 20 1 1 0 1010 18zM16 15A1 1 0 1016 17 1 1 0 1016 15zM13 15A1 1 0 1013 17 1 1 0 1013 15zM10 15A1 1 0 1010 17 1 1 0 1010 15zM10 12A1 1 0 1010 14 1 1 0 1010 12zM16 3A1 1 0 1016 5 1 1 0 1016 3zM16 9A1 1 0 1016 11 1 1 0 1016 9zM13 9A1 1 0 1013 11 1 1 0 1013 9zM16 6A1 1 0 1016 8 1 1 0 1016 6zM13 6A1 1 0 1013 8 1 1 0 1013 6zM13 3A1 1 0 1013 5 1 1 0 1013 3zM10 9A1 1 0 1010 11 1 1 0 1010 9zM10 6A1 1 0 1010 8 1 1 0 1010 6zM10 3A1 1 0 1010 5 1 1 0 1010 3zM7 3A1 1 0 107 5 1 1 0 107 3zM7 6A1 1 0 107 8 1 1 0 107 6zM7 9A1 1 0 107 11 1 1 0 107 9zM4 9A1 1 0 104 11 1 1 0 104 9zM4 6A1 1 0 104 8 1 1 0 104 6zM22 6A1 1 0 1022 8 1 1 0 1022 6zM22 9A1 1 0 1022 11 1 1 0 1022 9zM19 9A1 1 0 1019 11 1 1 0 1019 9zM19 6A1 1 0 1019 8 1 1 0 1019 6zM16 0A1 1 0 1016 2 1 1 0 1016 0zM13 0A1 1 0 1013 2 1 1 0 1013 0zM10 0A1 1 0 1010 2 1 1 0 1010 0z"/></svg>